<?xml version="1.0" encoding="UTF-8"?>
<svg width="184px" height="50px" viewBox="0 0 184 50" version="1.1" xmlns="http://www.w3.org/2000/svg" xmlns:xlink="http://www.w3.org/1999/xlink">
    <!-- Generator: Sketch 50.2 (55047) - http://www.bohemiancoding.com/sketch -->
    <title>logo</title>
    <desc>Created with Sketch.</desc>
    <defs></defs>
    <g id="Page-1" stroke="none" stroke-width="1" fill="none" fill-rule="evenodd">
        <g id="product_shop" transform="translate(-164.000000, -41.000000)" fill="#35D6B7" stroke="#35D6B7" stroke-width="1.1">
            <g id="header" transform="translate(165.000000, 39.000000)">
                <path d="M1.0078125,9.609375 C0.335934141,9.56249977 0,9.24219047 0,8.6484375 C0,7.85155852 0.683586914,6.87500578 2.05078125,5.71875 C3.41797559,4.56249422 5.63279719,3.90625078 8.6953125,3.75 C11.6953275,3.75 13.9257739,4.35155648 15.3867188,5.5546875 C16.8476636,6.75781852 17.578125,8.359365 17.578125,10.359375 C17.578125,13.9218928 16.652353,16.6406156 14.8007812,18.515625 C12.9492095,20.3906344 9.51565008,21.6718716 4.5,22.359375 C3.95312227,28.953158 3.58593844,33.046867 3.3984375,34.640625 C3.21093656,36.1093823 2.96875148,36.84375 2.671875,36.84375 C2.20312266,36.84375 1.75000219,36.2421935 1.3125,35.0390625 C0.874997812,33.8359315 0.65625,32.0000123 0.65625,29.53125 C0.65625,28.5937453 0.749999062,27.347664 0.9375,25.7929688 C1.12500094,24.2382735 1.50780961,19.7187874 2.0859375,12.234375 C2.39843906,9.89061328 3.16405641,8.30469164 4.3828125,7.4765625 C5.03906578,7.50781266 5.3671875,7.9531207 5.3671875,8.8125 L4.6171875,19.734375 C8.99220937,19.2031223 11.7226508,18.0312591 12.8085938,16.21875 C13.8945367,14.4062409 14.4375,12.4218858 14.4375,10.265625 C14.4375,9.09374414 14.1328155,8.0429734 13.5234375,7.11328125 C12.9140595,6.1835891 11.7500086,5.71875 10.03125,5.71875 C8.95311961,5.71875 7.76563148,5.85156117 6.46875,6.1171875 C5.17186852,6.38281383 4.13281641,7.07811937 3.3515625,8.203125 C2.58593367,9.14062969 1.80469148,9.609375 1.0078125,9.609375 Z M17.8359375,20.859375 C17.9140629,20.3593725 18.2812467,20.109375 18.9375,20.109375 C20.4218824,20.109375 21.1640625,21.7031091 21.1640625,24.890625 C23.0078217,22.484363 24.8749905,21.2500003 26.765625,21.1875 C27.9531309,21.1875 28.6601551,21.3437484 28.8867188,21.65625 C29.1132824,21.9687516 29.2265625,22.2187491 29.2265625,22.40625 C29.2265625,22.812502 28.4843824,23.2265604 27,23.6484375 C25.5156176,24.0703146 24.1953183,25.0937419 23.0390625,26.71875 C21.8828067,28.3437581 21.2734378,30.1874897 21.2109375,32.25 C21.1484372,34.3125103 20.921877,35.5078109 20.53125,35.8359375 C20.140623,36.1640641 19.6875026,36.328125 19.171875,36.328125 C18.5937471,36.328125 18.3046875,35.625007 18.3046875,34.21875 C18.3046875,33.2031199 18.3593745,32.2343796 18.46875,31.3125 C18.5781255,30.3906204 18.6328125,29.4843795 18.6328125,28.59375 C18.6328125,26.0937375 18.5000013,24.2773494 18.234375,23.1445312 C17.9687487,22.0117131 17.8359375,21.250002 17.8359375,20.859375 Z M32.9296875,23.90625 C33.820317,21.0312356 35.4453007,19.59375 37.8046875,19.59375 C40.710952,19.6875005 42.7968687,20.789052 44.0625,22.8984375 C45.3281313,25.007823 45.9921872,26.9843658 46.0546875,28.828125 C46.0546875,30.5156334 45.2265708,32.2343662 43.5703125,33.984375 C41.9609295,35.9218847 39.9765743,36.890625 37.6171875,36.890625 C35.6796778,36.7968745 34.1953177,36.2304739 33.1640625,35.1914062 C32.1328073,34.1523386 31.6171875,32.7812585 31.6171875,31.078125 C31.6171875,29.1718655 32.0546831,26.7812644 32.9296875,23.90625 Z M41.203125,24.1875 C39.9687438,22.8906185 38.9375041,22.2421875 38.109375,22.2421875 C37.0624948,22.2421875 36.214847,23.2382713 35.5664062,25.2304688 C34.9179655,27.2226662 34.59375,28.8906183 34.59375,30.234375 C34.59375,31.640632 34.8515599,32.6640593 35.3671875,33.3046875 C35.8828151,33.9453157 36.5468709,34.265625 37.359375,34.265625 C38.5312559,34.265625 39.7773371,33.6328188 41.0976562,32.3671875 C42.4179754,31.1015562 43.078125,29.7968817 43.078125,28.453125 C43.078125,26.8906172 42.4531313,25.4687564 41.203125,24.1875 Z M60.984375,5.203125 C61.2031261,4.21874508 61.7343708,3.71093766 62.578125,3.6796875 C63.4062541,3.71093766 63.8203125,3.98437242 63.8203125,4.5 C62.6640567,13.2500438 62.0859375,19.2109216 62.0859375,22.3828125 C62.1640629,29.3828475 62.6406206,33.8671777 63.515625,35.8359375 C63.515625,36.2578146 63.3828138,36.4843748 63.1171875,36.515625 C62.820311,36.515625 62.3125036,35.9218809 61.59375,34.734375 C60.8749964,33.5468691 60.4296884,31.7187623 60.2578125,29.25 C59.3203078,32.3750156 58.0781327,34.4062453 56.53125,35.34375 C55.734371,35.8906277 54.8906295,36.1640625 54,36.1640625 C52.0781154,36.1640625 50.6328173,35.5664122 49.6640625,34.3710938 C48.6953077,33.1757753 48.2109375,31.4921984 48.2109375,29.3203125 C48.2109375,27.4609282 48.6171834,25.6640712 49.4296875,23.9296875 C50.2421916,22.1953038 51.121089,21.0703151 52.0664062,20.5546875 C53.0117235,20.0390599 53.9140582,19.78125 54.7734375,19.78125 C56.3671955,19.78125 57.8437432,20.2031208 59.203125,21.046875 C59.3125005,17.4218569 59.9062446,12.1406597 60.984375,5.203125 Z M58.921875,22.78125 C58.1562462,22.0937466 57.1484438,21.75 55.8984375,21.75 C55.0546833,21.75 54.2578163,22.0703093 53.5078125,22.7109375 C52.7578087,23.3515657 52.1718771,24.5117104 51.75,26.1914062 C51.3281229,27.8711021 51.1171875,29.2343698 51.1171875,30.28125 C51.4921894,32.8125127 52.2578067,34.1093747 53.4140625,34.171875 C54.4296926,34.171875 55.2812466,33.5781309 55.96875,32.390625 C56.6718785,31.1718689 57.3046847,29.8125075 57.8671875,28.3125 C58.4296903,26.8124925 58.7812493,24.9687609 58.921875,22.78125 Z M70.171875,20.25 C71.2031302,20.25 71.71875,20.5390596 71.71875,21.1171875 C71.71875,21.9140665 71.441409,22.9999931 70.8867188,24.375 C70.3320285,25.7500069 70.0234378,27.5703012 69.9609375,29.8359375 C70.1015632,32.9140779 71.0624911,34.453125 72.84375,34.453125 C74.4218829,34.453125 75.8046816,32.7968916 76.9921875,29.484375 C78.1796934,26.1718584 79.2499952,24.4531256 80.203125,24.328125 C81.4218811,24.328125 82.03125,25.3124902 82.03125,27.28125 C82.03125,28.0312537 81.9648444,28.8203084 81.8320312,29.6484375 C81.6992181,30.4765666 81.6328125,31.187497 81.6328125,31.78125 C81.6328125,32.2968776 81.6874995,33.0742136 81.796875,34.1132812 C81.9062505,35.1523489 81.9609375,35.7968738 81.9609375,36.046875 C81.9609375,36.6093778 81.6171909,36.890625 80.9296875,36.890625 C80.6484361,36.890625 80.3046895,36.4023486 79.8984375,35.4257812 C79.4921855,34.4492139 79.2890625,33.3437562 79.2890625,32.109375 C79.2890625,31.0468697 79.3593743,30.0859418 79.5,29.2265625 C78.8281216,31.8672007 77.9062559,33.8320248 76.734375,35.1210938 C75.5624941,36.4101627 74.2421948,37.0546875 72.7734375,37.0546875 C71.2265548,37.0546875 69.9062555,36.5312552 68.8125,35.484375 C67.7187445,34.4374948 67.171875,32.515639 67.171875,29.71875 C67.171875,28.1874923 67.4999967,26.2265745 68.15625,23.8359375 C68.8125033,21.4453005 69.4843716,20.25 70.171875,20.25 Z M97.03125,24.609375 C96.2656212,23.3906189 95.2578188,22.78125 94.0078125,22.78125 C91.8203016,22.8906255 90.273442,23.749992 89.3671875,25.359375 C88.460933,26.968758 88.0078125,28.5624921 88.0078125,30.140625 C88.101563,31.734383 88.6445263,32.8749966 89.6367188,33.5625 C90.6289112,34.2500034 91.7421813,34.59375 92.9765625,34.59375 C93.5078152,34.59375 94.3671816,34.445314 95.5546875,34.1484375 C96.7421934,33.851561 98.1796791,33.1640679 99.8671875,32.0859375 C100.42969,31.7578109 100.773437,31.59375 100.898438,31.59375 C100.929688,31.59375 100.945312,31.6093748 100.945312,31.640625 C100.945312,31.8281259 100.011728,32.7421793 98.1445312,34.3828125 C96.2773344,36.0234457 94.2109488,36.84375 91.9453125,36.84375 C89.8984273,36.84375 88.2461,36.2578184 86.9882812,35.0859375 C85.7304625,33.9140566 85.1015625,32.4062592 85.1015625,30.5625 C85.1015625,28.3906141 85.5937451,26.4453211 86.578125,24.7265625 C87.5625049,23.0078039 88.7187434,21.8593779 90.046875,21.28125 C91.3750066,20.7031221 92.7578053,20.4140625 94.1953125,20.4140625 C95.5078191,20.4140625 96.5468712,20.7499966 97.3125,21.421875 C98.0781288,22.0937534 98.4609375,22.6562477 98.4609375,23.109375 C98.4609375,24.10938 97.9843798,24.609375 97.03125,24.609375 Z M108.890625,6.28125 C109.281252,4.09373906 110.601551,3 112.851562,3 C111.773432,8.34377672 110.976565,13.6405987 110.460938,18.890625 C115.617213,19.0156256 118.195312,19.2578107 118.195312,19.6171875 C118.195312,19.7734383 117.656255,19.9609364 116.578125,20.1796875 C113.562485,20.8046906 111.414069,21.1874993 110.132812,21.328125 C109.742186,25.5937713 109.546875,28.9062382 109.546875,31.265625 C109.609375,35.0468939 109.65625,37.3593708 109.6875,38.203125 C109.671875,38.593752 109.609376,38.7890625 109.5,38.7890625 C109.203124,38.7890625 108.675785,37.7382918 107.917969,35.6367188 C107.160152,33.5351457 106.78125,30.3125217 106.78125,25.96875 C106.78125,24.6406184 106.835937,23.2187576 106.945312,21.703125 L100.898438,22.8515625 C100.44531,22.8515625 100.210938,22.7578134 100.195312,22.5703125 C100.195312,22.0859351 100.355467,21.492191 100.675781,20.7890625 C100.996095,20.085934 101.289061,19.734375 101.554688,19.734375 C103.539072,19.2499976 105.429679,19.0078125 107.226562,19.0078125 C107.960941,12.710906 108.515623,8.46876094 108.890625,6.28125 Z M132.679688,7.5 C131.27343,7.37499938 130.121098,7.05078387 129.222656,6.52734375 C128.324214,6.00390363 127.484379,5.7421875 126.703125,5.7421875 C125.453119,5.7421875 124.195319,6.33593156 122.929688,7.5234375 C121.664056,8.71094344 121.03125,10.3593645 121.03125,12.46875 C121.03125,15.1406384 122.386705,18.3945121 125.097656,22.2304688 C127.808607,26.0664254 129.164062,28.9999898 129.164062,31.03125 C129.164062,32.6718832 128.644536,34.0273384 127.605469,35.0976562 C126.566401,36.1679741 125.070322,36.703125 123.117188,36.703125 C119.835921,36.2812479 118.195312,35.2890703 118.195312,33.7265625 C118.195312,33.3515606 118.324217,32.7343793 118.582031,31.875 C118.839845,31.0156207 119.132811,30.5859375 119.460938,30.5859375 C119.664064,30.5859375 119.851562,30.8671847 120.023438,31.4296875 C120.273439,32.7421941 120.761715,33.5507797 121.488281,33.8554688 C122.214847,34.1601578 123.148432,34.3125 124.289062,34.3125 C125.148442,34.3125 125.800779,34.0195342 126.246094,33.4335938 C126.691408,32.8476533 126.914062,32.2734403 126.914062,31.7109375 C126.914062,30.414056 125.363297,27.5508034 122.261719,23.1210938 C119.160141,18.6913841 117.609375,15.0468893 117.609375,12.1875 C117.609375,10.0624894 118.554678,8.06250937 120.445312,6.1875 C122.335947,4.31249063 124.335927,3.375 126.445312,3.375 C128.03907,3.375 129.58593,3.9453068 131.085938,5.0859375 C132.585945,6.2265682 133.335938,6.9765607 133.335938,7.3359375 C133.335938,7.4765632 133.203126,7.546875 132.9375,7.546875 C132.859375,7.546875 132.773438,7.53125016 132.679688,7.5 Z M136.59375,4.78125 C137.453129,3.87499547 138.507806,3.421875 139.757812,3.421875 L136.664062,33.515625 C139.070325,27.8593467 141.554675,25.03125 144.117188,25.03125 C146.273448,25.2187509 147.539061,27.2187309 147.914062,31.03125 C148.085938,32.7031334 148.171875,34.0390575 148.171875,35.0390625 C148.171875,36.1640681 148.070314,36.8749985 147.867188,37.171875 C147.789062,37.2656255 147.710938,37.3125 147.632812,37.3125 C147.257811,37.3125 146.789065,36.015638 146.226562,33.421875 C145.570309,29.8906073 144.820317,28.1171876 143.976562,28.1015625 C142.914057,28.1015625 141.773444,29.6406096 140.554688,32.71875 C139.05468,35.4218885 137.789068,36.7734375 136.757812,36.7734375 C135.664057,36.7734375 134.906252,36.3671916 134.484375,35.5546875 C134.062498,34.7421834 133.851562,33.7265686 133.851562,32.5078125 C133.851562,28.7421687 134.765616,19.5000736 136.59375,4.78125 Z M152.554688,23.90625 C153.445317,21.0312356 155.070301,19.59375 157.429688,19.59375 C160.335952,19.6875005 162.421869,20.789052 163.6875,22.8984375 C164.953131,25.007823 165.617187,26.9843658 165.679688,28.828125 C165.679688,30.5156334 164.851571,32.2343662 163.195312,33.984375 C161.585929,35.9218847 159.601574,36.890625 157.242188,36.890625 C155.304678,36.7968745 153.820318,36.2304739 152.789062,35.1914062 C151.757807,34.1523386 151.242188,32.7812585 151.242188,31.078125 C151.242188,29.1718655 151.679683,26.7812644 152.554688,23.90625 Z M160.828125,24.1875 C159.593744,22.8906185 158.562504,22.2421875 157.734375,22.2421875 C156.687495,22.2421875 155.839847,23.2382713 155.191406,25.2304688 C154.542966,27.2226662 154.21875,28.8906183 154.21875,30.234375 C154.21875,31.640632 154.47656,32.6640593 154.992188,33.3046875 C155.507815,33.9453157 156.171871,34.265625 156.984375,34.265625 C158.156256,34.265625 159.402337,33.6328188 160.722656,32.3671875 C162.042975,31.1015562 162.703125,29.7968817 162.703125,28.453125 C162.703125,26.8906172 162.078131,25.4687564 160.828125,24.1875 Z M168.421875,26.25 C168.249999,25.843748 168.164062,25.4531269 168.164062,25.078125 C168.164062,24.0624949 168.812494,23.2343782 170.109375,22.59375 C171.812509,21.5624948 173.515616,21.046875 175.21875,21.046875 C177.828138,21.046875 179.621089,21.4453085 180.597656,22.2421875 C181.574224,23.0390665 182.109375,24.2656167 182.203125,25.921875 C182.203125,28.4843878 181.429695,30.6093666 179.882812,32.296875 C178.33593,33.9843834 175.921891,35.7656156 172.640625,37.640625 L171.65625,50.71875 C171.218748,50.71875 170.781252,49.9921948 170.34375,48.5390625 C169.906248,47.0859302 169.6875,45.9843787 169.6875,45.234375 C169.875001,38.2968403 170.156248,31.5000333 170.53125,24.84375 L168.421875,26.25 Z M173.273438,23.8359375 L172.664062,34.265625 C175.398451,32.9531184 177.226558,31.574226 178.148438,30.1289062 C179.070317,28.6835865 179.53125,27.1015711 179.53125,25.3828125 C179.453125,24.2109316 178.460947,23.5312509 176.554688,23.34375 C175.367182,23.34375 174.273442,23.5078109 173.273438,23.8359375 Z" id="logo"></path>
            </g>
        </g>
    </g>
</svg>